<svg xmlns="http://www.w3.org/2000/svg" viewBox="0 0 64 64" role="img" aria-labelledby="logoTitle logoDesc">
  <title id="logoTitle">imMBA</title>
  <desc id="logoDesc">International MBA globe mark</desc>
  <defs>
    <linearGradient id="ocean" x1="12" y1="8" x2="52" y2="56" gradientUnits="userSpaceOnUse">
      <stop offset="0%" stop-color="#7dd3fc"/>
      <stop offset="45%" stop-color="#0ea5e9"/>
      <stop offset="100%" stop-color="#0284c7"/>
    </linearGradient>
    <linearGradient id="land" x1="20" y1="18" x2="44" y2="46" gradientUnits="userSpaceOnUse">
      <stop offset="0%" stop-color="#6ee7b7"/>
      <stop offset="100%" stop-color="#059669"/>
    </linearGradient>
    <radialGradient id="shine" cx="28" cy="22" r="18" gradientUnits="userSpaceOnUse">
      <stop offset="0%" stop-color="#ffffff" stop-opacity="0.45"/>
      <stop offset="100%" stop-color="#ffffff" stop-opacity="0"/>
    </radialGradient>
  </defs>
  <circle cx="32" cy="32" r="30.5" fill="none" stroke="#38bdf8" stroke-width="1.2" opacity="0.55"/>
  <ellipse cx="32" cy="32" rx="30.5" ry="10" fill="none" stroke="#7dd3fc" stroke-width="1" opacity="0.35" transform="rotate(-18 32 32)"/>
  <circle cx="32" cy="32" r="23.5" fill="url(#ocean)"/>
  <circle cx="32" cy="32" r="23.5" fill="url(#shine)"/>
  <path fill="url(#land)" opacity="0.92" d="M18 28c4-6 10-9 16-8 2 .2 4 1 5 2-3 1-6 3-8 6-4 1-8 0-13 0z"/>
  <path fill="url(#land)" opacity="0.82" d="M34 36c5-1 9 1 12 5-4 2-8 3-12 2-2-1-3-3-0-7z"/>
  <path fill="url(#land)" opacity="0.7" d="M24 40c2 3 5 5 9 5-2 2-5 3-8 2-2-1-3-3-1-7z"/>
  <ellipse cx="32" cy="32" rx="23.5" ry="7.5" fill="none" stroke="#ffffff" stroke-width="0.9" opacity="0.42"/>
  <ellipse cx="32" cy="32" rx="23.5" ry="15" fill="none" stroke="#ffffff" stroke-width="0.8" opacity="0.32"/>
  <ellipse cx="32" cy="32" rx="23.5" ry="21" fill="none" stroke="#ffffff" stroke-width="0.7" opacity="0.22"/>
  <ellipse cx="32" cy="32" rx="7.5" ry="23.5" fill="none" stroke="#ffffff" stroke-width="0.8" opacity="0.34"/>
  <ellipse cx="32" cy="32" rx="15" ry="23.5" fill="none" stroke="#ffffff" stroke-width="0.75" opacity="0.28"/>
  <line x1="8.5" y1="32" x2="55.5" y2="32" stroke="#ffffff" stroke-width="0.85" opacity="0.38"/>
  <circle cx="49" cy="17" r="2.2" fill="#fbbf24" opacity="0.95"/>
  <circle cx="49" cy="17" r="4.2" fill="none" stroke="#fde68a" stroke-width="0.8" opacity="0.7"/>
</svg>
